700 0 1 0           
30 Autodesk Translation Framework 20 ASM 229.2.0.65535 NT 24 Mon Jun 19 11:11:28 2023 
1 9.999999999999999547e-07 1.000000000000000036e-10 
body $1 -1 $-1 $2 $-1 $3 #
rgb_color-st-attrib $-1 -1 $-1 $-1 $0 0.7490196078431372584 0.7490196078431372584 0.7490196078431372584 #
lump $-1 -1 $-1 $-1 $4 $0 #
transform $-1 -1 1 0 0 0 1 0 0 0 1 0 0 0 1 no_rotate no_reflect no_shear #
shell $-1 -1 $-1 $-1 $-1 $5 $-1 $2 #
face $6 -1 $-1 $7 $8 $4 $-1 $9 forward single #
DXID-attrib $-1 -1 $-1 $-1 $5 @10 ASM ENTITY @1 0 #
face $10 -1 $-1 $11 $12 $4 $-1 $13 forward single #
loop $-1 -1 $-1 $-1 $14 $5 #
plane-surface $-1 -1 $-1 -7.888609052210118054e-30 -7.888609052210118054e-30 0 -4.930380657631323784e-32 2.220446049250312588e-16 -1 -2.220446049250312686e-15 10 2.220446049250312686e-15 forward_v I I I I #
DXID-attrib $-1 -1 $-1 $-1 $7 @10 ASM ENTITY @1 1 #
face $15 -1 $-1 $16 $17 $4 $-1 $18 forward single #
loop $-1 -1 $-1 $-1 $19 $7 #
plane-surface $-1 -1 $-1 7.888609052210118054e-30 -5.107025913275720086e-14 230 2.220446049250312588e-16 -1 -2.220446049250312588e-16 -4.930380657631323784e-31 2.220446049250312686e-15 -10 forward_v I I I I #
coedge $-1 -1 $-1 $20 $21 $22 $23 forward $8 $-1 #
DXID-attrib $-1 -1 $-1 $-1 $11 @10 ASM ENTITY @1 2 #
face $24 -1 $-1 $25 $26 $4 $-1 $27 forward single #
loop $-1 -1 $-1 $-1 $28 $11 #
plane-surface $-1 -1 $-1 -4.329869796038109245e-14 194.9999999999999716 230.0000000000000284 4.930380657631323784e-32 -2.220446049250312588e-16 1 2.220446049250312686e-15 -10 -2.220446049250312686e-15 forward_v I I I I #
coedge $-1 -1 $-1 $29 $30 $31 $32 forward $12 $-1 #
coedge $-1 -1 $-1 $33 $14 $34 $35 forward $8 $-1 #
coedge $-1 -1 $-1 $14 $33 $29 $36 reversed $8 $-1 #
coedge $-1 -1 $-1 $31 $37 $14 $23 reversed $38 $-1 #
edge $-1 -1 $-1 $39 0 $40 19.5 $14 $41 forward @7 unknown #
DXID-attrib $-1 -1 $-1 $-1 $16 @10 ASM ENTITY @1 3 #
face $42 -1 $-1 $43 $44 $4 $-1 $45 forward single #
loop $-1 -1 $-1 $-1 $46 $16 #
plane-surface $-1 -1 $-1 -4.329869796038110508e-14 195 4.329869796038109877e-14 -2.220446049250312588e-16 1 2.220446049250312588e-16 4.930380657631323784e-31 -2.220446049250312686e-15 10 forward_v I I I I #
coedge $-1 -1 $-1 $47 $48 $49 $50 forward $17 $-1 #
coedge $-1 -1 $-1 $51 $19 $21 $36 forward $12 $-1 #
coedge $-1 -1 $-1 $19 $51 $47 $52 reversed $12 $-1 #
coedge $-1 -1 $-1 $49 $22 $19 $32 reversed $38 $-1 #
edge $-1 -1 $-1 $53 0 $39 23 $19 $54 forward @7 unknown #
coedge $-1 -1 $-1 $21 $20 $55 $56 reversed $8 $-1 #
coedge $-1 -1 $-1 $46 $57 $20 $35 reversed $26 $-1 #
edge $-1 -1 $-1 $40 0 $58 50 $34 $59 forward @7 unknown #
edge $-1 -1 $-1 $39 0 $60 50 $29 $61 forward @7 unknown #
coedge $-1 -1 $-1 $22 $49 $46 $62 reversed $38 $-1 #
loop $-1 -1 $-1 $-1 $37 $43 #
vertex $-1 -1 $-1 $23 $63 #
vertex $-1 -1 $-1 $23 $64 #
straight-curve $-1 -1 $-1 -7.888609052210118054e-30 -7.888609052210118054e-30 0 -2.220446049250312686e-15 10 2.220446049250312686e-15 F 0 F 19.5 #
DXID-attrib $-1 -1 $-1 $-1 $25 @10 ASM ENTITY @1 4 #
face $65 -1 $-1 $-1 $38 $4 $-1 $66 reversed single #
loop $-1 -1 $-1 $-1 $67 $25 #
plane-surface $-1 -1 $-1 500 97.50000000000008527 115.0000000000000142 1 2.220446049250312588e-16 0 -2.220446049250312686e-15 10 2.220446049250312686e-15 forward_v I I I I #
coedge $-1 -1 $-1 $68 $34 $37 $62 forward $26 $-1 #
coedge $-1 -1 $-1 $69 $28 $30 $52 forward $17 $-1 #
coedge $-1 -1 $-1 $28 $69 $68 $70 reversed $17 $-1 #
coedge $-1 -1 $-1 $37 $31 $28 $50 reversed $38 $-1 #
edge $-1 -1 $-1 $71 0 $53 19.5 $28 $72 forward @7 unknown #
coedge $-1 -1 $-1 $30 $29 $73 $74 reversed $12 $-1 #
edge $-1 -1 $-1 $53 0 $75 50 $47 $76 forward @7 unknown #
vertex $-1 -1 $-1 $32 $77 #
straight-curve $-1 -1 $-1 7.888609052210118054e-30 -5.107025913275720086e-14 230 -4.930380657631323784e-31 2.220446049250312686e-15 -10 F 0 F 23 #
coedge $-1 -1 $-1 $67 $73 $33 $56 forward $44 $-1 #
edge $-1 -1 $-1 $60 0 $58 19.5 $33 $78 forward @7 unknown #
coedge $-1 -1 $-1 $34 $68 $67 $79 reversed $26 $-1 #
vertex $-1 -1 $-1 $35 $80 #
straight-curve $-1 -1 $-1 -4.329869796038110508e-14 195 4.329869796038109877e-14 10 2.220446049250312686e-15 0 I I #
vertex $-1 -1 $-1 $56 $81 #
straight-curve $-1 -1 $-1 -7.888609052210118054e-30 -7.888609052210118054e-30 0 10 2.220446049250312686e-15 0 I I #
edge $-1 -1 $-1 $40 0 $71 23 $46 $82 forward @7 unknown #
point $-1 -1 $-1 -7.888609052210118054e-30 -7.888609052210118054e-30 0 #
point $-1 -1 $-1 -4.329869796038110508e-14 195 4.329869796038109877e-14 #
DXID-attrib $-1 -1 $-1 $-1 $43 @10 ASM ENTITY @1 5 #
plane-surface $-1 -1 $-1 -2.164934898019054938e-14 97.49999999999998579 115.0000000000000142 1 2.220446049250312588e-16 0 -2.220446049250312686e-15 10 2.220446049250312686e-15 forward_v I I I I #
coedge $-1 -1 $-1 $83 $55 $57 $79 forward $44 $-1 #
coedge $-1 -1 $-1 $57 $46 $48 $70 forward $26 $-1 #
coedge $-1 -1 $-1 $48 $47 $83 $84 reversed $17 $-1 #
edge $-1 -1 $-1 $71 0 $85 50 $68 $86 forward @7 unknown #
vertex $-1 -1 $-1 $50 $87 #
straight-curve $-1 -1 $-1 -4.329869796038109245e-14 194.9999999999999716 230.0000000000000284 2.220446049250312686e-15 -10 -2.220446049250312686e-15 F 0 F 19.5 #
coedge $-1 -1 $-1 $55 $83 $51 $74 forward $44 $-1 #
edge $-1 -1 $-1 $75 0 $60 23 $51 $88 forward @7 unknown #
vertex $-1 -1 $-1 $74 $89 #
straight-curve $-1 -1 $-1 7.888609052210118054e-30 -5.107025913275720086e-14 230 10 2.220446049250312686e-15 0 I I #
point $-1 -1 $-1 7.888609052210118054e-30 -5.107025913275720086e-14 230 #
straight-curve $-1 -1 $-1 500 1.110223024625156288e-13 0 -2.220446049250312686e-15 10 2.220446049250312686e-15 I I #
edge $-1 -1 $-1 $58 0 $85 23 $57 $90 forward @7 unknown #
point $-1 -1 $-1 499.9999999999999432 195.0000000000001137 4.329869796038110508e-14 #
point $-1 -1 $-1 500 1.110223024625156288e-13 0 #
straight-curve $-1 -1 $-1 -4.329869796038110508e-14 195 4.329869796038109877e-14 4.930380657631323784e-31 -2.220446049250312686e-15 10 F 0 F 23 #
coedge $-1 -1 $-1 $73 $67 $69 $84 forward $44 $-1 #
edge $-1 -1 $-1 $85 0 $75 19.5 $69 $91 forward @7 unknown #
vertex $-1 -1 $-1 $84 $92 #
straight-curve $-1 -1 $-1 -4.329869796038109245e-14 194.9999999999999716 230.0000000000000284 10 2.220446049250312686e-15 0 I I #
point $-1 -1 $-1 -4.329869796038109245e-14 194.9999999999999716 230.0000000000000284 #
straight-curve $-1 -1 $-1 500 5.995204332975844056e-14 230 -4.930380657631323784e-31 2.220446049250312686e-15 -10 I I #
point $-1 -1 $-1 500 5.995204332975844056e-14 230 #
straight-curve $-1 -1 $-1 499.9999999999999432 195.0000000000001137 4.329869796038110508e-14 4.930380657631323784e-31 -2.220446049250312686e-15 10 I I #
straight-curve $-1 -1 $-1 499.9999999999999432 195.0000000000000568 230.0000000000000284 2.220446049250312686e-15 -10 -2.220446049250312686e-15 I I #
point $-1 -1 $-1 499.9999999999999432 195.0000000000000568 230.0000000000000284 #
End-of-ACIS-data 