700 0 1 0           
30 Autodesk Translation Framework 20 ASM 229.2.0.65535 NT 24 Mon Jun 19 11:08:47 2023 
1 9.999999999999999547e-07 1.000000000000000036e-10 
body $1 -1 $-1 $2 $-1 $3 #
rgb_color-st-attrib $-1 -1 $-1 $-1 $0 0.7490196078431372584 0.7490196078431372584 0.7490196078431372584 #
lump $-1 -1 $-1 $-1 $4 $0 #
transform $-1 -1 1 0 0 0 1 0 0 0 1 0 0 0 1 no_rotate no_reflect no_shear #
shell $-1 -1 $-1 $-1 $-1 $5 $-1 $2 #
face $6 -1 $-1 $7 $8 $4 $-1 $9 forward single #
DXID-attrib $-1 -1 $-1 $-1 $5 @10 ASM ENTITY @1 0 #
face $10 -1 $-1 $11 $12 $4 $-1 $13 forward single #
loop $-1 -1 $-1 $-1 $14 $5 #
plane-surface $-1 -1 $-1 11.99999999999999289 -6.394884621840900411e-14 288 1 -3.081487911019576818e-32 1.387778780781445676e-16 -1.387778780781445676e-15 -2.220446049250312686e-15 10 forward_v I I I I #
DXID-attrib $-1 -1 $-1 $-1 $7 @10 ASM ENTITY @1 1 #
face $15 -1 $-1 $16 $17 $4 $-1 $18 forward single #
loop $-1 -1 $-1 $-1 $19 $7 #
plane-surface $-1 -1 $-1 257 -6.394884621840900411e-14 288 0 -2.220446049250312588e-16 1 -10 0 0 forward_v I I I I #
coedge $-1 -1 $-1 $20 $21 $22 $23 forward $8 $-1 #
DXID-attrib $-1 -1 $-1 $-1 $11 @10 ASM ENTITY @1 2 #
face $24 -1 $-1 $25 $26 $4 $-1 $27 forward single #
loop $-1 -1 $-1 $-1 $28 $11 #
plane-surface $-1 -1 $-1 257 -9.237055564881301154e-14 416 -1 0 0 0 2.220446049250312686e-15 -10 forward_v I I I I #
coedge $-1 -1 $-1 $29 $30 $31 $32 forward $12 $-1 #
coedge $-1 -1 $-1 $33 $14 $34 $35 forward $8 $-1 #
coedge $-1 -1 $-1 $14 $33 $29 $36 reversed $8 $-1 #
coedge $-1 -1 $-1 $31 $37 $14 $23 reversed $38 $-1 #
edge $-1 -1 $-1 $39 0 $40 12.80000000000000071 $14 $41 forward @7 unknown #
DXID-attrib $-1 -1 $-1 $-1 $16 @10 ASM ENTITY @1 3 #
face $42 -1 $-1 $43 $44 $4 $-1 $45 forward single #
loop $-1 -1 $-1 $-1 $46 $16 #
plane-surface $-1 -1 $-1 11.99999999999997513 -9.237055564881301154e-14 416 0 2.220446049250312588e-16 -1 10 0 0 forward_v I I I I #
coedge $-1 -1 $-1 $47 $48 $49 $50 forward $17 $-1 #
coedge $-1 -1 $-1 $51 $19 $21 $36 forward $12 $-1 #
coedge $-1 -1 $-1 $19 $51 $47 $52 reversed $12 $-1 #
coedge $-1 -1 $-1 $49 $22 $19 $32 reversed $38 $-1 #
edge $-1 -1 $-1 $53 0 $39 24.5 $19 $54 forward @7 unknown #
coedge $-1 -1 $-1 $21 $20 $55 $56 reversed $8 $-1 #
coedge $-1 -1 $-1 $46 $57 $20 $35 reversed $26 $-1 #
edge $-1 -1 $-1 $40 0 $58 10.30000000000000071 $34 $59 forward @7 unknown #
edge $-1 -1 $-1 $39 0 $60 10.30000000000000071 $29 $61 forward @7 unknown #
coedge $-1 -1 $-1 $22 $49 $46 $62 reversed $38 $-1 #
loop $-1 -1 $-1 $-1 $37 $63 #
vertex $-1 -1 $-1 $23 $64 #
vertex $-1 -1 $-1 $23 $65 #
straight-curve $-1 -1 $-1 11.99999999999999289 -6.394884621840900411e-14 288 -1.387778780781445676e-15 -2.220446049250312686e-15 10 F 0 F 12.80000000000000071 #
DXID-attrib $-1 -1 $-1 $-1 $25 @10 ASM ENTITY @1 4 #
face $66 -1 $-1 $67 $68 $4 $-1 $69 forward single #
loop $-1 -1 $-1 $-1 $70 $25 #
plane-surface $-1 -1 $-1 271.9999999999998863 -6.394884621840901673e-14 288.0000000000000568 1 -6.16297582203915473e-32 2.775557561562891844e-16 -2.775557561562891745e-15 -2.220446049250312686e-15 10 forward_v I I I I #
coedge $-1 -1 $-1 $71 $34 $37 $62 forward $26 $-1 #
coedge $-1 -1 $-1 $72 $28 $30 $52 forward $17 $-1 #
coedge $-1 -1 $-1 $28 $72 $71 $73 reversed $17 $-1 #
coedge $-1 -1 $-1 $37 $31 $28 $50 reversed $38 $-1 #
edge $-1 -1 $-1 $74 0 $53 12.80000000000000071 $28 $75 forward @7 unknown #
coedge $-1 -1 $-1 $30 $29 $76 $77 reversed $12 $-1 #
edge $-1 -1 $-1 $53 0 $78 10.30000000000000071 $47 $79 forward @7 unknown #
vertex $-1 -1 $-1 $32 $80 #
straight-curve $-1 -1 $-1 257 -6.394884621840900411e-14 288 -10 0 0 F 0 F 24.5 #
coedge $-1 -1 $-1 $81 $76 $33 $56 forward $82 $-1 #
edge $-1 -1 $-1 $60 0 $58 12.80000000000000071 $33 $83 forward @7 unknown #
coedge $-1 -1 $-1 $34 $71 $81 $84 reversed $26 $-1 #
vertex $-1 -1 $-1 $35 $85 #
straight-curve $-1 -1 $-1 11.99999999999997513 -9.237055564881301154e-14 416 0 -10 -2.220446049250312686e-15 I I #
vertex $-1 -1 $-1 $56 $86 #
straight-curve $-1 -1 $-1 11.99999999999999289 -6.394884621840900411e-14 288 0 -10 -2.220446049250312686e-15 I I #
edge $-1 -1 $-1 $40 0 $74 24.5 $46 $87 forward @7 unknown #
face $88 -1 $-1 $-1 $89 $4 $-1 $90 reversed single #
point $-1 -1 $-1 11.99999999999999289 -6.394884621840900411e-14 288 #
point $-1 -1 $-1 11.99999999999997513 -9.237055564881301154e-14 416 #
DXID-attrib $-1 -1 $-1 $-1 $43 @10 ASM ENTITY @1 5 #
face $91 -1 $-1 $92 $93 $4 $-1 $94 forward single #
loop $-1 -1 $-1 $-1 $95 $43 #
plane-surface $-1 -1 $-1 516.9999999999998863 -6.394884621840901673e-14 288.0000000000000568 0 -2.220446049250312588e-16 1 -10 0 0 forward_v I I I I #
coedge $-1 -1 $-1 $96 $97 $98 $99 forward $44 $-1 #
coedge $-1 -1 $-1 $57 $46 $48 $73 forward $26 $-1 #
coedge $-1 -1 $-1 $48 $47 $100 $101 reversed $17 $-1 #
edge $-1 -1 $-1 $74 0 $102 10.30000000000000071 $71 $103 forward @7 unknown #
vertex $-1 -1 $-1 $50 $104 #
straight-curve $-1 -1 $-1 257 -9.237055564881301154e-14 416 0 2.220446049250312686e-15 -10 F 0 F 12.80000000000000071 #
coedge $-1 -1 $-1 $55 $100 $51 $77 forward $82 $-1 #
edge $-1 -1 $-1 $78 0 $60 24.5 $51 $105 forward @7 unknown #
vertex $-1 -1 $-1 $77 $106 #
straight-curve $-1 -1 $-1 257 -6.394884621840900411e-14 288 0 -10 -2.220446049250312686e-15 I I #
point $-1 -1 $-1 257 -6.394884621840900411e-14 288 #
coedge $-1 -1 $-1 $100 $55 $57 $84 forward $82 $-1 #
loop $-1 -1 $-1 $-1 $81 $107 #
straight-curve $-1 -1 $-1 11.99999999999999289 -103.0000000000000853 288 -1.387778780781445676e-15 -2.220446049250312686e-15 10 I I #
edge $-1 -1 $-1 $58 0 $102 24.5 $57 $108 forward @7 unknown #
point $-1 -1 $-1 11.99999999999995737 -103.0000000000000995 416 #
point $-1 -1 $-1 12.00000000000002842 -103.0000000000000853 288 #
straight-curve $-1 -1 $-1 11.99999999999997513 -9.237055564881301154e-14 416 10 0 0 F 0 F 24.5 #
DXID-attrib $-1 -1 $-1 $-1 $63 @10 ASM ENTITY @2 29 #
loop $-1 -1 $-1 $109 $110 $63 #
plane-surface $-1 -1 $-1 264.5 -4.751754545395670624e-14 214.0000000000000568 0 -1 -2.220446049250312588e-16 10 0 0 forward_v I I I I #
DXID-attrib $-1 -1 $-1 $-1 $67 @10 ASM ENTITY @1 6 #
face $111 -1 $-1 $112 $113 $4 $-1 $114 forward single #
loop $-1 -1 $-1 $-1 $115 $67 #
plane-surface $-1 -1 $-1 516.9999999999998863 -9.237055564881301154e-14 416 -1 0 0 0 2.220446049250312686e-15 -10 forward_v I I I I #
coedge $-1 -1 $-1 $116 $117 $118 $119 forward $68 $-1 #
coedge $-1 -1 $-1 $120 $70 $121 $122 forward $44 $-1 #
coedge $-1 -1 $-1 $70 $120 $116 $123 reversed $44 $-1 #
coedge $-1 -1 $-1 $118 $124 $70 $99 reversed $125 $-1 #
edge $-1 -1 $-1 $126 0 $127 12.79999999999999716 $70 $128 forward @7 unknown #
coedge $-1 -1 $-1 $76 $81 $72 $101 forward $82 $-1 #
edge $-1 -1 $-1 $102 0 $78 12.80000000000000071 $72 $129 forward @7 unknown #
vertex $-1 -1 $-1 $101 $130 #
straight-curve $-1 -1 $-1 257 -9.237055564881301154e-14 416 0 -10 -2.220446049250312686e-15 I I #
point $-1 -1 $-1 257 -9.237055564881301154e-14 416 #
straight-curve $-1 -1 $-1 257 -103.0000000000000853 288 -10 0 0 I I #
point $-1 -1 $-1 257 -103.0000000000000853 288 #
face $131 -1 $-1 $63 $132 $4 $-1 $133 forward single #
straight-curve $-1 -1 $-1 11.99999999999997513 -103.0000000000000995 416 10 0 0 I I #
loop $-1 -1 $-1 $134 $135 $63 #
coedge $-1 -1 $-1 $136 $137 $138 $139 reversed $89 $-1 #
DXID-attrib $-1 -1 $-1 $-1 $92 @10 ASM ENTITY @1 7 #
face $140 -1 $-1 $141 $142 $4 $-1 $143 forward single #
loop $-1 -1 $-1 $-1 $144 $92 #
plane-surface $-1 -1 $-1 271.9999999999998295 -9.237055564881301154e-14 416 0 2.220446049250312588e-16 -1 10 0 0 forward_v I I I I #
coedge $-1 -1 $-1 $145 $146 $147 $148 forward $93 $-1 #
coedge $-1 -1 $-1 $149 $95 $97 $123 forward $68 $-1 #
coedge $-1 -1 $-1 $95 $149 $145 $150 reversed $68 $-1 #
coedge $-1 -1 $-1 $147 $98 $95 $119 reversed $125 $-1 #
edge $-1 -1 $-1 $151 0 $126 24.5 $95 $152 forward @7 unknown #
coedge $-1 -1 $-1 $97 $96 $153 $154 reversed $44 $-1 #
coedge $-1 -1 $-1 $144 $155 $96 $122 reversed $113 $-1 #
edge $-1 -1 $-1 $127 0 $156 10.30000000000000071 $121 $157 forward @7 unknown #
edge $-1 -1 $-1 $126 0 $158 10.30000000000000071 $116 $159 forward @7 unknown #
coedge $-1 -1 $-1 $98 $147 $144 $160 reversed $125 $-1 #
loop $-1 -1 $-1 $38 $124 $63 #
vertex $-1 -1 $-1 $99 $161 #
vertex $-1 -1 $-1 $99 $162 #
straight-curve $-1 -1 $-1 271.9999999999998863 -6.394884621840901673e-14 288.0000000000000568 -2.775557561562891745e-15 -2.220446049250312686e-15 10 F 0 F 12.79999999999999716 #
straight-curve $-1 -1 $-1 257 -103.0000000000000995 416 0 2.220446049250312686e-15 -10 I I #
point $-1 -1 $-1 257 -103.0000000000000995 416 #
DXID-attrib $-1 -1 $-1 $-1 $107 @10 ASM ENTITY @2 28 #
loop $-1 -1 $-1 $163 $164 $107 #
plane-surface $-1 -1 $-1 264.5 -103.0000000000000568 214.0000000000000284 0 -1 -2.220446049250312588e-16 10 0 0 forward_v I I I I #
loop $-1 -1 $-1 $165 $166 $63 #
coedge $-1 -1 $-1 $167 $168 $169 $170 reversed $109 $-1 #
coedge $-1 -1 $-1 $171 $110 $172 $173 reversed $89 $-1 #
coedge $-1 -1 $-1 $110 $171 $174 $175 reversed $89 $-1 #
coedge $-1 -1 $-1 $176 $177 $110 $139 forward $178 $-1 #
edge $-1 -1 $-1 $179 0 $180 42.80000000000000426 $138 $181 forward @7 unknown #
DXID-attrib $-1 -1 $-1 $-1 $112 @10 ASM ENTITY @1 8 #
face $182 -1 $-1 $183 $184 $4 $-1 $185 forward single #
loop $-1 -1 $-1 $-1 $186 $112 #
plane-surface $-1 -1 $-1 12.0000000000000675 -3.330669073875467728e-14 149.9999999999999432 1 -1.878240250526218261e-31 8.458842092382145586e-16 -8.458842092382144995e-15 -2.220446049250312686e-15 10 forward_v I I I I #
coedge $-1 -1 $-1 $187 $121 $124 $160 forward $113 $-1 #
coedge $-1 -1 $-1 $188 $115 $117 $150 forward $93 $-1 #
coedge $-1 -1 $-1 $115 $188 $187 $189 reversed $93 $-1 #
coedge $-1 -1 $-1 $124 $118 $115 $148 reversed $125 $-1 #
edge $-1 -1 $-1 $190 0 $151 12.79999999999999716 $115 $191 forward @7 unknown #
coedge $-1 -1 $-1 $117 $116 $192 $193 reversed $68 $-1 #
edge $-1 -1 $-1 $151 0 $194 10.30000000000000071 $145 $195 forward @7 unknown #
vertex $-1 -1 $-1 $119 $196 #
straight-curve $-1 -1 $-1 516.9999999999998863 -6.394884621840901673e-14 288.0000000000000568 -10 0 0 F 0 F 24.5 #
coedge $-1 -1 $-1 $197 $192 $120 $154 forward $198 $-1 #
edge $-1 -1 $-1 $158 0 $156 12.79999999999999716 $120 $199 forward @7 unknown #
coedge $-1 -1 $-1 $121 $187 $197 $200 reversed $113 $-1 #
vertex $-1 -1 $-1 $122 $201 #
straight-curve $-1 -1 $-1 271.9999999999998295 -9.237055564881301154e-14 416 0 -10 -2.220446049250312686e-15 I I #
vertex $-1 -1 $-1 $154 $202 #
straight-curve $-1 -1 $-1 271.9999999999998863 -6.394884621840901673e-14 288.0000000000000568 0 -10 -2.220446049250312686e-15 I I #
edge $-1 -1 $-1 $127 0 $190 24.50000000000000355 $144 $203 forward @7 unknown #
point $-1 -1 $-1 271.9999999999998863 -6.394884621840901673e-14 288.0000000000000568 #
point $-1 -1 $-1 271.9999999999998295 -9.237055564881301154e-14 416 #
loop $-1 -1 $-1 $204 $205 $107 #
coedge $-1 -1 $-1 $206 $207 $208 $209 forward $132 $-1 #
loop $-1 -1 $-1 $210 $211 $63 #
coedge $-1 -1 $-1 $212 $213 $214 $215 reversed $134 $-1 #
coedge $-1 -1 $-1 $216 $135 $217 $218 reversed $109 $-1 #
coedge $-1 -1 $-1 $135 $216 $219 $220 reversed $109 $-1 #
coedge $-1 -1 $-1 $221 $222 $135 $170 forward $223 $-1 #
edge $-1 -1 $-1 $224 0 $225 24.5 $169 $226 forward @7 unknown #
coedge $-1 -1 $-1 $137 $136 $227 $228 reversed $89 $-1 #
coedge $-1 -1 $-1 $229 $230 $136 $173 forward $231 $-1 #
edge $-1 -1 $-1 $232 0 $179 52.90000000000000568 $172 $233 forward @7 unknown #
coedge $-1 -1 $-1 $234 $235 $137 $175 forward $236 $-1 #
edge $-1 -1 $-1 $180 0 $237 52.90000000000000568 $174 $238 forward @7 unknown #
coedge $-1 -1 $-1 $208 $138 $235 $239 forward $178 $-1 #
coedge $-1 -1 $-1 $138 $208 $229 $240 reversed $178 $-1 #
loop $-1 -1 $-1 $-1 $138 $241 #
vertex $-1 -1 $-1 $173 $242 #
vertex $-1 -1 $-1 $175 $243 #
straight-curve $-1 -1 $-1 529 0 0 0 -2.220446049250312686e-15 10 F 0 F 42.80000000000000426 #
DXID-attrib $-1 -1 $-1 $-1 $141 @10 ASM ENTITY @1 9 #
face $244 -1 $-1 $245 $246 $4 $-1 $247 forward single #
loop $-1 -1 $-1 $-1 $248 $141 #
plane-surface $-1 -1 $-1 257.0000000000001137 -3.330669073875470252e-14 150.0000000000000568 -5.075305255429285774e-16 -2.220446049250312588e-16 1 -10 1.12694415031573065e-30 -5.075305255429285577e-15 forward_v I I I I #
coedge $-1 -1 $-1 $249 $250 $251 $252 forward $142 $-1 #
coedge $-1 -1 $-1 $155 $144 $146 $189 forward $113 $-1 #
coedge $-1 -1 $-1 $146 $145 $253 $254 reversed $93 $-1 #
edge $-1 -1 $-1 $190 0 $255 10.30000000000000071 $187 $256 forward @7 unknown #
vertex $-1 -1 $-1 $148 $257 #
straight-curve $-1 -1 $-1 516.9999999999998863 -9.237055564881301154e-14 416 0 2.220446049250312686e-15 -10 F 0 F 12.79999999999999716 #
coedge $-1 -1 $-1 $153 $253 $149 $193 forward $198 $-1 #
edge $-1 -1 $-1 $194 0 $158 24.5 $149 $258 forward @7 unknown #
vertex $-1 -1 $-1 $193 $259 #
straight-curve $-1 -1 $-1 516.9999999999998863 -6.394884621840901673e-14 288.0000000000000568 0 -10 -2.220446049250312686e-15 I I #
point $-1 -1 $-1 516.9999999999998863 -6.394884621840901673e-14 288.0000000000000568 #
coedge $-1 -1 $-1 $253 $153 $155 $200 forward $198 $-1 #
loop $-1 -1 $-1 $82 $197 $107 #
straight-curve $-1 -1 $-1 271.9999999999998863 -103.0000000000000853 288.0000000000000568 -2.775557561562891745e-15 -2.220446049250312686e-15 10 I I #
edge $-1 -1 $-1 $156 0 $255 24.50000000000000355 $155 $260 forward @7 unknown #
point $-1 -1 $-1 271.9999999999998295 -103.0000000000000995 416 #
point $-1 -1 $-1 271.9999999999998863 -103.0000000000000853 288.0000000000000568 #
straight-curve $-1 -1 $-1 271.9999999999998295 -9.237055564881301154e-14 416 10 0 0 F 0 F 24.50000000000000355 #
loop $-1 -1 $-1 $261 $262 $107 #
coedge $-1 -1 $-1 $263 $264 $265 $266 forward $163 $-1 #
coedge $-1 -1 $-1 $267 $164 $268 $269 forward $132 $-1 #
coedge $-1 -1 $-1 $164 $267 $270 $271 forward $132 $-1 #
coedge $-1 -1 $-1 $177 $176 $164 $209 reversed $178 $-1 #
edge $-1 -1 $-1 $272 0 $273 42.80000000000000426 $208 $274 forward @7 unknown #
loop $-1 -1 $-1 $125 $275 $63 #
coedge $-1 -1 $-1 $276 $277 $278 $279 reversed $165 $-1 #
coedge $-1 -1 $-1 $280 $166 $281 $282 reversed $134 $-1 #
coedge $-1 -1 $-1 $166 $280 $283 $284 reversed $134 $-1 #
coedge $-1 -1 $-1 $285 $286 $166 $215 forward $287 $-1 #
edge $-1 -1 $-1 $288 0 $289 24.50000000000000355 $214 $290 forward @7 unknown #
coedge $-1 -1 $-1 $168 $167 $291 $292 reversed $109 $-1 #
coedge $-1 -1 $-1 $293 $294 $167 $218 forward $295 $-1 #
edge $-1 -1 $-1 $296 0 $224 12.60000000000000497 $217 $297 forward @7 unknown #
coedge $-1 -1 $-1 $298 $299 $168 $220 forward $300 $-1 #
edge $-1 -1 $-1 $225 0 $301 12.60000000000000142 $219 $302 forward @7 unknown #
coedge $-1 -1 $-1 $265 $169 $299 $303 forward $223 $-1 #
coedge $-1 -1 $-1 $169 $265 $293 $304 reversed $223 $-1 #
loop $-1 -1 $-1 $-1 $169 $305 #
vertex $-1 -1 $-1 $218 $306 #
vertex $-1 -1 $-1 $220 $307 #
straight-curve $-1 -1 $-1 272.0000000000001705 -3.064215547965436469e-14 138.0000000000002274 10 0 0 F 0 F 24.5 #
coedge $-1 -1 $-1 $308 $309 $171 $228 forward $310 $-1 #
edge $-1 -1 $-1 $237 0 $232 42.80000000000000426 $227 $311 forward @7 unknown #
coedge $-1 -1 $-1 $270 $172 $177 $240 forward $231 $-1 #
coedge $-1 -1 $-1 $172 $270 $308 $312 reversed $231 $-1 #
loop $-1 -1 $-1 $-1 $172 $313 #
vertex $-1 -1 $-1 $173 $314 #
straight-curve $-1 -1 $-1 0 0 0 10 0 0 F 0 F 52.90000000000000568 #
coedge $-1 -1 $-1 $268 $174 $309 $315 forward $236 $-1 #
coedge $-1 -1 $-1 $174 $268 $176 $239 reversed $236 $-1 #
loop $-1 -1 $-1 $-1 $174 $316 #
vertex $-1 -1 $-1 $228 $317 #
straight-curve $-1 -1 $-1 529 -9.503509090791341248e-14 428.0000000000001137 -10 0 0 F 0 F 52.90000000000000568 #
edge $-1 -1 $-1 $180 0 $273 10.30000000000000071 $176 $318 forward @7 unknown #
edge $-1 -1 $-1 $179 0 $272 10.30000000000000071 $177 $319 forward @7 unknown #
face $320 -1 $-1 $107 $178 $4 $-1 $321 forward single #
point $-1 -1 $-1 529 0 0 #
point $-1 -1 $-1 529 -9.503509090791341248e-14 428.0000000000001137 #
DXID-attrib $-1 -1 $-1 $-1 $183 @10 ASM ENTITY @2 10 #
face $322 -1 $-1 $323 $324 $4 $-1 $325 forward single #
loop $-1 -1 $-1 $-1 $326 $183 #
plane-surface $-1 -1 $-1 257 -6.128431095930865365e-14 276.0000000000001137 -1 1.878240250526218042e-31 -8.4588420923821446e-16 8.458842092382144995e-15 2.220446049250312686e-15 -10 forward_v I I I I #
coedge $-1 -1 $-1 $327 $328 $329 $330 forward $184 $-1 #
coedge $-1 -1 $-1 $331 $186 $332 $333 forward $142 $-1 #
coedge $-1 -1 $-1 $186 $331 $327 $334 reversed $142 $-1 #
coedge $-1 -1 $-1 $329 $275 $186 $252 reversed $210 $-1 #
edge $-1 -1 $-1 $335 0 $336 12.59999999999999964 $186 $337 forward @7 unknown #
coedge $-1 -1 $-1 $192 $197 $188 $254 forward $198 $-1 #
edge $-1 -1 $-1 $255 0 $194 12.79999999999999716 $188 $338 forward @7 unknown #
vertex $-1 -1 $-1 $254 $339 #
straight-curve $-1 -1 $-1 516.9999999999998863 -9.237055564881301154e-14 416 0 -10 -2.220446049250312686e-15 I I #
point $-1 -1 $-1 516.9999999999998863 -9.237055564881301154e-14 416 #
straight-curve $-1 -1 $-1 516.9999999999998863 -103.0000000000000853 288.0000000000000568 -10 0 0 I I #
point $-1 -1 $-1 516.9999999999998863 -103.0000000000000853 288.0000000000000568 #
straight-curve $-1 -1 $-1 271.9999999999998295 -103.0000000000000995 416 10 0 0 I I #
loop $-1 -1 $-1 $340 $341 $107 #
coedge $-1 -1 $-1 $342 $343 $344 $345 forward $204 $-1 #
coedge $-1 -1 $-1 $346 $205 $347 $348 forward $163 $-1 #
coedge $-1 -1 $-1 $205 $346 $349 $350 forward $163 $-1 #
coedge $-1 -1 $-1 $222 $221 $205 $266 reversed $223 $-1 #
edge $-1 -1 $-1 $351 0 $352 24.5 $265 $353 forward @7 unknown #
coedge $-1 -1 $-1 $207 $206 $354 $355 forward $132 $-1 #
coedge $-1 -1 $-1 $235 $234 $206 $269 reversed $236 $-1 #
edge $-1 -1 $-1 $273 0 $356 52.90000000000000568 $268 $357 forward @7 unknown #
coedge $-1 -1 $-1 $230 $229 $207 $271 reversed $231 $-1 #
edge $-1 -1 $-1 $358 0 $272 52.90000000000000568 $270 $359 forward @7 unknown #
vertex $-1 -1 $-1 $240 $360 #
vertex $-1 -1 $-1 $269 $361 #
straight-curve $-1 -1 $-1 529 -103 -2.287059430727822158e-14 0 -2.220446049250312686e-15 10 I I #
coedge $-1 -1 $-1 $251 $362 $363 $364 reversed $210 $-1 #
coedge $-1 -1 $-1 $365 $211 $366 $367 reversed $165 $-1 #
coedge $-1 -1 $-1 $211 $365 $368 $369 reversed $165 $-1 #
coedge $-1 -1 $-1 $370 $371 $211 $279 forward $372 $-1 #
edge $-1 -1 $-1 $373 0 $374 24.49999999999998579 $278 $375 forward @7 unknown #
coedge $-1 -1 $-1 $213 $212 $376 $377 reversed $134 $-1 #
coedge $-1 -1 $-1 $378 $379 $212 $282 forward $380 $-1 #
edge $-1 -1 $-1 $381 0 $288 12.60000000000000497 $281 $382 forward @7 unknown #
coedge $-1 -1 $-1 $383 $384 $213 $284 forward $385 $-1 #
edge $-1 -1 $-1 $289 0 $386 12.60000000000000142 $283 $387 forward @7 unknown #
coedge $-1 -1 $-1 $344 $214 $384 $388 forward $287 $-1 #
coedge $-1 -1 $-1 $214 $344 $378 $389 reversed $287 $-1 #
loop $-1 -1 $-1 $-1 $214 $390 #
vertex $-1 -1 $-1 $282 $391 #
vertex $-1 -1 $-1 $284 $392 #
straight-curve $-1 -1 $-1 17.72900000000012 -3.064215547965433314e-14 138.0000000000000853 10 0 0 F 0 F 24.50000000000000355 #
coedge $-1 -1 $-1 $393 $394 $216 $292 forward $395 $-1 #
edge $-1 -1 $-1 $301 0 $296 24.5 $291 $396 forward @7 unknown #
coedge $-1 -1 $-1 $349 $217 $222 $304 forward $295 $-1 #
coedge $-1 -1 $-1 $217 $349 $393 $397 reversed $295 $-1 #
loop $-1 -1 $-1 $-1 $217 $398 #
vertex $-1 -1 $-1 $218 $399 #
straight-curve $-1 -1 $-1 272.0000000000001705 -2.66453525910041514e-15 12.00000000000017941 0 -2.220446049250312686e-15 10 F 0 F 12.60000000000000497 #
coedge $-1 -1 $-1 $347 $219 $394 $400 forward $300 $-1 #
coedge $-1 -1 $-1 $219 $347 $221 $303 reversed $300 $-1 #
loop $-1 -1 $-1 $-1 $219 $401 #
vertex $-1 -1 $-1 $292 $402 #
straight-curve $-1 -1 $-1 517.0000000000002274 -3.064215547965436469e-14 138.0000000000002274 0 2.220446049250312686e-15 -10 F 0 F 12.60000000000000142 #
edge $-1 -1 $-1 $225 0 $352 10.30000000000000071 $221 $403 forward @7 unknown #
edge $-1 -1 $-1 $224 0 $351 10.30000000000000071 $222 $404 forward @7 unknown #
face $405 -1 $-1 $313 $223 $4 $-1 $406 forward single #
point $-1 -1 $-1 272.0000000000001705 -3.064215547965436469e-14 138.0000000000002274 #
point $-1 -1 $-1 517.0000000000002274 -3.064215547965436469e-14 138.0000000000002274 #
coedge $-1 -1 $-1 $354 $227 $230 $312 forward $310 $-1 #
coedge $-1 -1 $-1 $227 $354 $234 $315 reversed $310 $-1 #
loop $-1 -1 $-1 $-1 $227 $407 #
straight-curve $-1 -1 $-1 0 -9.503509090791341248e-14 428.0000000000001137 0 2.220446049250312686e-15 -10 F 0 F 42.80000000000000426 #
edge $-1 -1 $-1 $232 0 $358 10.30000000000000071 $308 $408 forward @7 unknown #
face $409 -1 $-1 $407 $231 $4 $-1 $410 forward single #
point $-1 -1 $-1 0 0 0 #
edge $-1 -1 $-1 $237 0 $356 10.30000000000000071 $234 $411 forward @7 unknown #
face $412 -1 $-1 $241 $236 $4 $-1 $413 forward single #
point $-1 -1 $-1 0 -9.503509090791341248e-14 428.0000000000001137 #
straight-curve $-1 -1 $-1 529 -9.503509090791341248e-14 428.0000000000001137 0 -10 -2.220446049250312686e-15 I I #
straight-curve $-1 -1 $-1 529 0 0 0 -10 -2.220446049250312686e-15 I I #
DXID-attrib $-1 -1 $-1 $-1 $241 @10 ASM ENTITY @2 27 #
plane-surface $-1 -1 $-1 529 0 0 1 0 0 0 -2.220446049250312686e-15 10 forward_v I I I I #
DXID-attrib $-1 -1 $-1 $-1 $245 @10 ASM ENTITY @2 11 #
face $414 -1 $-1 $415 $416 $4 $-1 $417 forward single #
loop $-1 -1 $-1 $-1 $363 $245 #
plane-surface $-1 -1 $-1 11.99999999999996092 -6.128431095930861579e-14 275.9999999999999432 5.80034886334775517e-16 2.220446049250312588e-16 -1 10 -1.287936171789406532e-30 5.80034886334775517e-15 forward_v I I I I #
coedge $-1 -1 $-1 $418 $419 $362 $420 forward $246 $-1 #
coedge $-1 -1 $-1 $421 $248 $250 $334 forward $184 $-1 #
coedge $-1 -1 $-1 $248 $421 $418 $422 reversed $184 $-1 #
coedge $-1 -1 $-1 $362 $251 $248 $330 reversed $210 $-1 #
edge $-1 -1 $-1 $423 0 $335 24.50000000000000711 $248 $424 forward @7 unknown #
coedge $-1 -1 $-1 $250 $249 $425 $426 reversed $142 $-1 #
coedge $-1 -1 $-1 $363 $427 $249 $333 reversed $324 $-1 #
edge $-1 -1 $-1 $336 0 $428 10.30000000000000071 $332 $429 forward @7 unknown #
edge $-1 -1 $-1 $335 0 $430 10.30000000000000071 $327 $431 forward @7 unknown #
vertex $-1 -1 $-1 $252 $432 #
vertex $-1 -1 $-1 $252 $433 #
straight-curve $-1 -1 $-1 12.0000000000000675 -3.330669073875467728e-14 149.9999999999999432 -8.458842092382144995e-15 -2.220446049250312686e-15 10 F 0 F 12.59999999999999964 #
straight-curve $-1 -1 $-1 516.9999999999998863 -103.0000000000000995 416 0 2.220446049250312686e-15 -10 I I #
point $-1 -1 $-1 516.9999999999998863 -103.0000000000000995 416 #
loop $-1 -1 $-1 $198 $434 $107 #
coedge $-1 -1 $-1 $435 $436 $437 $438 forward $261 $-1 #
coedge $-1 -1 $-1 $439 $262 $440 $441 forward $204 $-1 #
coedge $-1 -1 $-1 $262 $439 $442 $443 forward $204 $-1 #
coedge $-1 -1 $-1 $286 $285 $262 $345 reversed $287 $-1 #
edge $-1 -1 $-1 $444 0 $445 24.50000000000000355 $344 $446 forward @7 unknown #
coedge $-1 -1 $-1 $264 $263 $447 $448 forward $163 $-1 #
coedge $-1 -1 $-1 $299 $298 $263 $348 reversed $300 $-1 #
edge $-1 -1 $-1 $352 0 $449 12.60000000000000142 $347 $450 forward @7 unknown #
coedge $-1 -1 $-1 $294 $293 $264 $350 reversed $295 $-1 #
edge $-1 -1 $-1 $451 0 $351 12.60000000000000497 $349 $452 forward @7 unknown #
vertex $-1 -1 $-1 $304 $453 #
vertex $-1 -1 $-1 $348 $454 #
straight-curve $-1 -1 $-1 272.0000000000001705 -103.0000000000000426 138.0000000000002274 10 0 0 I I #
coedge $-1 -1 $-1 $309 $308 $267 $355 reversed $310 $-1 #
edge $-1 -1 $-1 $356 0 $358 42.80000000000000426 $354 $455 forward @7 unknown #
vertex $-1 -1 $-1 $355 $456 #
straight-curve $-1 -1 $-1 529 -103.0000000000000995 428.0000000000001137 -10 0 0 I I #
vertex $-1 -1 $-1 $271 $457 #
straight-curve $-1 -1 $-1 0 -103 -2.287059430727822158e-14 10 0 0 I I #
point $-1 -1 $-1 529 -103 -2.287059430727822158e-14 #
point $-1 -1 $-1 529 -103.0000000000000995 428.0000000000001137 #
coedge $-1 -1 $-1 $275 $329 $326 $420 reversed $210 $-1 #
coedge $-1 -1 $-1 $458 $332 $275 $364 forward $324 $-1 #
edge $-1 -1 $-1 $336 0 $459 24.50000000000000711 $363 $460 forward @7 unknown #
coedge $-1 -1 $-1 $277 $276 $461 $462 reversed $165 $-1 #
coedge $-1 -1 $-1 $463 $464 $276 $367 forward $416 $-1 #
edge $-1 -1 $-1 $465 0 $373 12.59999999999999076 $366 $466 forward @7 unknown #
coedge $-1 -1 $-1 $467 $468 $277 $369 forward $469 $-1 #
edge $-1 -1 $-1 $374 0 $470 12.60000000000000675 $368 $471 forward @7 unknown #
coedge $-1 -1 $-1 $437 $278 $468 $472 forward $372 $-1 #
coedge $-1 -1 $-1 $278 $437 $463 $473 reversed $372 $-1 #
loop $-1 -1 $-1 $-1 $278 $474 #
vertex $-1 -1 $-1 $367 $475 #
vertex $-1 -1 $-1 $369 $476 #
straight-curve $-1 -1 $-1 272.0000000000001705 -6.128431095930864103e-14 276.0000000000001137 10 -1.609920214736759523e-30 7.250436079184700668e-15 F 0 F 24.49999999999998579 #
coedge $-1 -1 $-1 $477 $478 $280 $377 forward $479 $-1 #
edge $-1 -1 $-1 $386 0 $381 24.5 $376 $480 forward @7 unknown #
coedge $-1 -1 $-1 $442 $281 $286 $389 forward $380 $-1 #
coedge $-1 -1 $-1 $281 $442 $477 $481 reversed $380 $-1 #
loop $-1 -1 $-1 $-1 $281 $482 #
vertex $-1 -1 $-1 $282 $483 #
straight-curve $-1 -1 $-1 17.72900000000015908 -2.66453525910038753e-15 12.00000000000005507 -2.995839907718675596e-15 -2.220446049250312686e-15 10 F 0 F 12.60000000000000497 #
coedge $-1 -1 $-1 $440 $283 $478 $484 forward $385 $-1 #
coedge $-1 -1 $-1 $283 $440 $285 $388 reversed $385 $-1 #
loop $-1 -1 $-1 $-1 $283 $485 #
vertex $-1 -1 $-1 $377 $486 #
straight-curve $-1 -1 $-1 262.7290000000001555 -3.064215547965433314e-14 138.0000000000000853 0 2.220446049250312686e-15 -10 F 0 F 12.60000000000000142 #
edge $-1 -1 $-1 $289 0 $445 10.30000000000000071 $285 $487 forward @7 unknown #
edge $-1 -1 $-1 $288 0 $444 10.30000000000000071 $286 $488 forward @7 unknown #
face $489 -1 $-1 $398 $287 $4 $-1 $490 forward single #
point $-1 -1 $-1 17.72900000000012 -3.064215547965433314e-14 138.0000000000000853 #
point $-1 -1 $-1 262.7290000000001555 -3.064215547965433314e-14 138.0000000000000853 #
coedge $-1 -1 $-1 $447 $291 $294 $397 forward $395 $-1 #
coedge $-1 -1 $-1 $291 $447 $298 $400 reversed $395 $-1 #
loop $-1 -1 $-1 $-1 $291 $491 #
straight-curve $-1 -1 $-1 517.0000000000002274 -2.664535259100421057e-15 12.00000000000020606 -10 2.414880322105137796e-31 -1.08756541187770439e-15 F 0 F 24.5 #
edge $-1 -1 $-1 $296 0 $451 10.30000000000000071 $393 $492 forward @7 unknown #
face $493 -1 $-1 $491 $295 $4 $-1 $494 forward single #
point $-1 -1 $-1 272.0000000000001705 -2.66453525910041514e-15 12.00000000000017941 #
edge $-1 -1 $-1 $301 0 $449 10.30000000000000071 $298 $495 forward @7 unknown #
face $496 -1 $-1 $305 $300 $4 $-1 $497 forward single #
point $-1 -1 $-1 517.0000000000002274 -2.664535259100421057e-15 12.00000000000020606 #
straight-curve $-1 -1 $-1 517.0000000000002274 -3.064215547965436469e-14 138.0000000000002274 0 -10 -2.220446049250312686e-15 I I #
straight-curve $-1 -1 $-1 272.0000000000001705 -3.064215547965436469e-14 138.0000000000002274 0 -10 -2.220446049250312686e-15 I I #
DXID-attrib $-1 -1 $-1 $-1 $305 @10 ASM ENTITY @2 23 #
plane-surface $-1 -1 $-1 272.0000000000001705 -3.064215547965436469e-14 138.0000000000002274 0 2.220446049250312588e-16 -1 10 0 0 forward_v I I I I #
face $498 -1 $-1 $316 $310 $4 $-1 $499 forward single #
straight-curve $-1 -1 $-1 0 0 0 0 -10 -2.220446049250312686e-15 I I #
DXID-attrib $-1 -1 $-1 $-1 $313 @10 ASM ENTITY @2 24 #
plane-surface $-1 -1 $-1 0 0 0 0 2.220446049250312588e-16 -1 10 0 0 forward_v I I I I #
straight-curve $-1 -1 $-1 0 -9.503509090791341248e-14 428.0000000000001137 0 -10 -2.220446049250312686e-15 I I #
DXID-attrib $-1 -1 $-1 $-1 $316 @10 ASM ENTITY @2 26 #
plane-surface $-1 -1 $-1 529 -9.503509090791341248e-14 428.0000000000001137 0 -2.220446049250312588e-16 1 -10 0 0 forward_v I I I I #
DXID-attrib $-1 -1 $-1 $-1 $323 @10 ASM ENTITY @2 12 #
face $500 -1 $-1 $501 $502 $4 $-1 $503 forward single #
loop $-1 -1 $-1 $-1 $366 $323 #
plane-surface $-1 -1 $-1 272.0000000000002274 -3.330669073875472146e-14 150.0000000000001421 1 -6.260800835087399313e-32 2.819614030794050665e-16 -2.819614030794050567e-15 -2.220446049250312686e-15 10 forward_v I I I I #
coedge $-1 -1 $-1 $504 $326 $328 $422 forward $246 $-1 #
coedge $-1 -1 $-1 $326 $504 $458 $505 reversed $246 $-1 #
edge $-1 -1 $-1 $459 0 $423 12.60000000000000142 $326 $506 forward @7 unknown #
coedge $-1 -1 $-1 $328 $327 $507 $508 reversed $184 $-1 #
edge $-1 -1 $-1 $423 0 $509 10.30000000000000071 $418 $510 forward @7 unknown #
vertex $-1 -1 $-1 $330 $511 #
straight-curve $-1 -1 $-1 257.0000000000001137 -3.330669073875470252e-14 150.0000000000000568 -10 1.12694415031573065e-30 -5.075305255429285577e-15 F 0 F 24.50000000000000711 #
coedge $-1 -1 $-1 $434 $507 $331 $426 forward $340 $-1 #
edge $-1 -1 $-1 $430 0 $428 12.59999999999999964 $331 $512 forward @7 unknown #
coedge $-1 -1 $-1 $332 $458 $434 $513 reversed $324 $-1 #
vertex $-1 -1 $-1 $333 $514 #
straight-curve $-1 -1 $-1 11.99999999999996092 -6.128431095930861579e-14 275.9999999999999432 0 -10 -2.220446049250312686e-15 I I #
vertex $-1 -1 $-1 $426 $515 #
straight-curve $-1 -1 $-1 12.0000000000000675 -3.330669073875467728e-14 149.9999999999999432 0 -10 -2.220446049250312686e-15 I I #
point $-1 -1 $-1 12.0000000000000675 -3.330669073875467728e-14 149.9999999999999432 #
point $-1 -1 $-1 11.99999999999996092 -6.128431095930861579e-14 275.9999999999999432 #
coedge $-1 -1 $-1 $516 $425 $427 $513 forward $340 $-1 #
coedge $-1 -1 $-1 $517 $341 $518 $519 forward $261 $-1 #
coedge $-1 -1 $-1 $341 $517 $520 $521 forward $261 $-1 #
coedge $-1 -1 $-1 $371 $370 $341 $438 reversed $372 $-1 #
edge $-1 -1 $-1 $522 0 $523 24.49999999999998579 $437 $524 forward @7 unknown #
coedge $-1 -1 $-1 $343 $342 $525 $526 forward $204 $-1 #
coedge $-1 -1 $-1 $384 $383 $342 $441 reversed $385 $-1 #
edge $-1 -1 $-1 $445 0 $527 12.60000000000000142 $440 $528 forward @7 unknown #
coedge $-1 -1 $-1 $379 $378 $343 $443 reversed $380 $-1 #
edge $-1 -1 $-1 $529 0 $444 12.60000000000000497 $442 $530 forward @7 unknown #
vertex $-1 -1 $-1 $389 $531 #
vertex $-1 -1 $-1 $441 $532 #
straight-curve $-1 -1 $-1 17.72900000000012 -103.0000000000000426 138.0000000000000853 10 0 0 I I #
coedge $-1 -1 $-1 $394 $393 $346 $448 reversed $395 $-1 #
edge $-1 -1 $-1 $449 0 $451 24.5 $447 $533 forward @7 unknown #
vertex $-1 -1 $-1 $448 $534 #
straight-curve $-1 -1 $-1 517.0000000000002274 -103.0000000000000426 138.0000000000002274 0 2.220446049250312686e-15 -10 I I #
vertex $-1 -1 $-1 $350 $535 #
straight-curve $-1 -1 $-1 272.0000000000001705 -103 12.00000000000015632 0 -2.220446049250312686e-15 10 I I #
point $-1 -1 $-1 272.0000000000001705 -103.0000000000000426 138.0000000000002274 #
point $-1 -1 $-1 517.0000000000002274 -103.0000000000000426 138.0000000000002274 #
straight-curve $-1 -1 $-1 0 -103.0000000000000995 428.0000000000001137 0 2.220446049250312686e-15 -10 I I #
point $-1 -1 $-1 0 -103.0000000000000995 428.0000000000001137 #
point $-1 -1 $-1 0 -103 -2.287059430727822158e-14 #
coedge $-1 -1 $-1 $427 $363 $419 $505 forward $324 $-1 #
vertex $-1 -1 $-1 $420 $536 #
straight-curve $-1 -1 $-1 11.99999999999996092 -6.128431095930861579e-14 275.9999999999999432 10 -1.287936171789406532e-30 5.80034886334775517e-15 F 0 F 24.50000000000000711 #
coedge $-1 -1 $-1 $537 $538 $365 $462 forward $502 $-1 #
edge $-1 -1 $-1 $470 0 $465 24.49999999999999645 $461 $539 forward @7 unknown #
coedge $-1 -1 $-1 $520 $366 $371 $473 forward $416 $-1 #
coedge $-1 -1 $-1 $366 $520 $537 $540 reversed $416 $-1 #
vertex $-1 -1 $-1 $367 $541 #
straight-curve $-1 -1 $-1 272.0000000000002274 -3.330669073875472146e-14 150.0000000000001421 -2.819614030794050567e-15 -2.220446049250312686e-15 10 F 0 F 12.59999999999999076 #
coedge $-1 -1 $-1 $518 $368 $538 $542 forward $469 $-1 #
coedge $-1 -1 $-1 $368 $518 $370 $472 reversed $469 $-1 #
loop $-1 -1 $-1 $-1 $368 $501 #
vertex $-1 -1 $-1 $462 $543 #
straight-curve $-1 -1 $-1 517 -6.12843109593086789e-14 276.0000000000002274 1.127845612317618649e-14 2.220446049250312686e-15 -10 F 0 F 12.60000000000000675 #
edge $-1 -1 $-1 $374 0 $523 10.30000000000000071 $370 $544 forward @7 unknown #
edge $-1 -1 $-1 $373 0 $522 10.30000000000000071 $371 $545 forward @7 unknown #
face $546 -1 $-1 $482 $372 $4 $-1 $547 forward single #
point $-1 -1 $-1 272.0000000000001705 -6.128431095930864103e-14 276.0000000000001137 #
point $-1 -1 $-1 517 -6.12843109593086789e-14 276.0000000000002274 #
coedge $-1 -1 $-1 $525 $376 $379 $481 forward $479 $-1 #
coedge $-1 -1 $-1 $376 $525 $383 $484 reversed $479 $-1 #
loop $-1 -1 $-1 $-1 $376 $548 #
straight-curve $-1 -1 $-1 262.7290000000001555 -2.664535259100393841e-15 12.00000000000008349 -10 2.616120348947232867e-31 -1.178195862867513188e-15 F 0 F 24.5 #
edge $-1 -1 $-1 $381 0 $529 10.30000000000000071 $477 $549 forward @7 unknown #
face $550 -1 $-1 $548 $380 $4 $-1 $551 forward single #
point $-1 -1 $-1 17.72900000000015908 -2.66453525910038753e-15 12.00000000000005507 #
edge $-1 -1 $-1 $386 0 $527 10.30000000000000071 $383 $552 forward @7 unknown #
face $553 -1 $-1 $390 $385 $4 $-1 $554 forward single #
point $-1 -1 $-1 262.7290000000001555 -2.664535259100393841e-15 12.00000000000008349 #
straight-curve $-1 -1 $-1 262.7290000000001555 -3.064215547965433314e-14 138.0000000000000853 0 -10 -2.220446049250312686e-15 I I #
straight-curve $-1 -1 $-1 17.72900000000012 -3.064215547965433314e-14 138.0000000000000853 0 -10 -2.220446049250312686e-15 I I #
DXID-attrib $-1 -1 $-1 $-1 $390 @10 ASM ENTITY @2 19 #
plane-surface $-1 -1 $-1 17.72900000000012 -3.064215547965433314e-14 138.0000000000000853 0 2.220446049250312588e-16 -1 10 0 0 forward_v I I I I #
face $555 -1 $-1 $401 $395 $4 $-1 $556 forward single #
straight-curve $-1 -1 $-1 272.0000000000001705 -2.66453525910041514e-15 12.00000000000017941 0 -10 -2.220446049250312686e-15 I I #
DXID-attrib $-1 -1 $-1 $-1 $398 @10 ASM ENTITY @2 20 #
plane-surface $-1 -1 $-1 272.0000000000001705 -2.66453525910041514e-15 12.00000000000017941 1 0 0 0 -2.220446049250312686e-15 10 forward_v I I I I #
straight-curve $-1 -1 $-1 517.0000000000002274 -2.664535259100421057e-15 12.00000000000020606 0 -10 -2.220446049250312686e-15 I I #
DXID-attrib $-1 -1 $-1 $-1 $401 @10 ASM ENTITY @2 22 #
plane-surface $-1 -1 $-1 517.0000000000002274 -3.064215547965436469e-14 138.0000000000002274 -1 0 0 0 2.220446049250312686e-15 -10 forward_v I I I I #
DXID-attrib $-1 -1 $-1 $-1 $407 @10 ASM ENTITY @2 25 #
plane-surface $-1 -1 $-1 0 -9.503509090791341248e-14 428.0000000000001137 -1 0 0 0 2.220446049250312686e-15 -10 forward_v I I I I #
DXID-attrib $-1 -1 $-1 $-1 $415 @10 ASM ENTITY @2 13 #
face $557 -1 $-1 $474 $469 $4 $-1 $558 forward single #
loop $-1 -1 $-1 $-1 $461 $415 #
plane-surface $-1 -1 $-1 517.0000000000002274 -3.330669073875472777e-14 150.0000000000001705 -7.250436079184696428e-17 -2.220446049250312588e-16 1 -10 1.609920214736758603e-31 -7.250436079184695935e-16 forward_v I I I I #
coedge $-1 -1 $-1 $419 $418 $516 $559 reversed $246 $-1 #
edge $-1 -1 $-1 $459 0 $560 10.30000000000000071 $458 $561 forward @7 unknown #
straight-curve $-1 -1 $-1 257 -6.128431095930865365e-14 276.0000000000001137 8.458842092382144995e-15 2.220446049250312686e-15 -10 F 0 F 12.60000000000000142 #
coedge $-1 -1 $-1 $425 $516 $421 $508 forward $340 $-1 #
edge $-1 -1 $-1 $509 0 $430 24.50000000000000711 $421 $562 forward @7 unknown #
vertex $-1 -1 $-1 $508 $563 #
straight-curve $-1 -1 $-1 257.0000000000001137 -3.330669073875470252e-14 150.0000000000000568 0 -10 -2.220446049250312686e-15 I I #
point $-1 -1 $-1 257.0000000000001137 -3.330669073875470252e-14 150.0000000000000568 #
straight-curve $-1 -1 $-1 12.0000000000000675 -103.0000000000000426 149.9999999999999432 -8.458842092382144995e-15 -2.220446049250312686e-15 10 I I #
edge $-1 -1 $-1 $428 0 $560 24.50000000000000711 $427 $564 forward @7 unknown #
point $-1 -1 $-1 11.99999999999995737 -103.0000000000000568 275.9999999999998863 #
point $-1 -1 $-1 12.00000000000009948 -103.0000000000000426 149.9999999999999432 #
coedge $-1 -1 $-1 $507 $434 $504 $559 forward $340 $-1 #
coedge $-1 -1 $-1 $436 $435 $565 $566 forward $261 $-1 #
coedge $-1 -1 $-1 $468 $467 $435 $519 reversed $469 $-1 #
edge $-1 -1 $-1 $523 0 $567 12.60000000000000675 $518 $568 forward @7 unknown #
coedge $-1 -1 $-1 $464 $463 $436 $521 reversed $416 $-1 #
edge $-1 -1 $-1 $569 0 $522 12.59999999999999076 $520 $570 forward @7 unknown #
vertex $-1 -1 $-1 $473 $571 #
vertex $-1 -1 $-1 $519 $572 #
straight-curve $-1 -1 $-1 272.0000000000001705 -103.0000000000000568 276.0000000000000568 10 -1.609920214736759523e-30 7.250436079184700668e-15 I I #
coedge $-1 -1 $-1 $478 $477 $439 $526 reversed $479 $-1 #
edge $-1 -1 $-1 $527 0 $529 24.5 $525 $573 forward @7 unknown #
vertex $-1 -1 $-1 $526 $574 #
straight-curve $-1 -1 $-1 262.7290000000001555 -103.0000000000000426 138.0000000000000853 0 2.220446049250312686e-15 -10 I I #
vertex $-1 -1 $-1 $443 $575 #
straight-curve $-1 -1 $-1 17.72900000000015908 -103 12.00000000000003197 -2.995839907718675596e-15 -2.220446049250312686e-15 10 I I #
point $-1 -1 $-1 17.72900000000014131 -103.0000000000000426 138.0000000000000853 #
point $-1 -1 $-1 262.7290000000001555 -103.0000000000000426 138.0000000000000853 #
straight-curve $-1 -1 $-1 517.0000000000002274 -103 12.00000000000018474 -10 2.414880322105137796e-31 -1.08756541187770439e-15 I I #
point $-1 -1 $-1 517.0000000000002274 -103 12.00000000000018474 #
point $-1 -1 $-1 272.0000000000001705 -103 12.00000000000015632 #
point $-1 -1 $-1 257 -6.128431095930865365e-14 276.0000000000001137 #
coedge $-1 -1 $-1 $565 $461 $464 $540 forward $502 $-1 #
coedge $-1 -1 $-1 $461 $565 $467 $542 reversed $502 $-1 #
straight-curve $-1 -1 $-1 517.0000000000002274 -3.330669073875472777e-14 150.0000000000001705 -10 1.609920214736758603e-31 -7.250436079184695935e-16 F 0 F 24.49999999999999645 #
edge $-1 -1 $-1 $465 0 $569 10.30000000000000071 $537 $576 forward @7 unknown #
point $-1 -1 $-1 272.0000000000002274 -3.330669073875472146e-14 150.0000000000001421 #
edge $-1 -1 $-1 $470 0 $567 10.30000000000000071 $467 $577 forward @7 unknown #
point $-1 -1 $-1 517.0000000000002274 -3.330669073875472777e-14 150.0000000000001705 #
straight-curve $-1 -1 $-1 517 -6.12843109593086789e-14 276.0000000000002274 0 -10 -2.220446049250312686e-15 I I #
straight-curve $-1 -1 $-1 272.0000000000001705 -6.128431095930864103e-14 276.0000000000001137 0 -10 -2.220446049250312686e-15 I I #
DXID-attrib $-1 -1 $-1 $-1 $474 @10 ASM ENTITY @2 15 #
plane-surface $-1 -1 $-1 272.0000000000001705 -6.128431095930864103e-14 276.0000000000001137 7.250436079184699879e-16 2.220446049250312588e-16 -1 10 -1.609920214736759523e-30 7.250436079184700668e-15 forward_v I I I I #
face $578 -1 $-1 $485 $479 $4 $-1 $579 forward single #
straight-curve $-1 -1 $-1 17.72900000000015908 -2.66453525910038753e-15 12.00000000000005507 0 -10 -2.220446049250312686e-15 I I #
DXID-attrib $-1 -1 $-1 $-1 $482 @10 ASM ENTITY @2 16 #
plane-surface $-1 -1 $-1 17.72900000000015908 -2.66453525910038753e-15 12.00000000000005507 1 -6.652100887280353559e-32 2.995839907718675103e-16 -2.995839907718675596e-15 -2.220446049250312686e-15 10 forward_v I I I I #
straight-curve $-1 -1 $-1 262.7290000000001555 -2.664535259100393841e-15 12.00000000000008349 0 -10 -2.220446049250312686e-15 I I #
DXID-attrib $-1 -1 $-1 $-1 $485 @10 ASM ENTITY @2 18 #
plane-surface $-1 -1 $-1 262.7290000000001555 -3.064215547965433314e-14 138.0000000000000853 -1 0 0 0 2.220446049250312686e-15 -10 forward_v I I I I #
DXID-attrib $-1 -1 $-1 $-1 $491 @10 ASM ENTITY @2 21 #
plane-surface $-1 -1 $-1 517.0000000000002274 -2.664535259100421057e-15 12.00000000000020606 -1.087565411877704464e-16 -2.220446049250312588e-16 1 -10 2.414880322105137796e-31 -1.08756541187770439e-15 forward_v I I I I #
DXID-attrib $-1 -1 $-1 $-1 $501 @10 ASM ENTITY @2 14 #
plane-surface $-1 -1 $-1 517 -6.12843109593086789e-14 276.0000000000002274 -1 2.504320334034956222e-31 -1.127845612317618688e-15 1.127845612317618649e-14 2.220446049250312686e-15 -10 forward_v I I I I #
edge $-1 -1 $-1 $560 0 $509 12.60000000000000142 $504 $580 forward @7 unknown #
vertex $-1 -1 $-1 $559 $581 #
straight-curve $-1 -1 $-1 257 -6.128431095930865365e-14 276.0000000000001137 0 -10 -2.220446049250312686e-15 I I #
straight-curve $-1 -1 $-1 257.0000000000001137 -103.0000000000000426 150.0000000000000568 -10 1.12694415031573065e-30 -5.075305255429285577e-15 I I #
point $-1 -1 $-1 257.0000000000001137 -103.0000000000000426 150.0000000000000568 #
straight-curve $-1 -1 $-1 11.99999999999996092 -103.0000000000000568 275.9999999999998863 10 -1.287936171789406532e-30 5.80034886334775517e-15 I I #
coedge $-1 -1 $-1 $538 $537 $517 $566 reversed $502 $-1 #
edge $-1 -1 $-1 $567 0 $569 24.49999999999999645 $565 $582 forward @7 unknown #
vertex $-1 -1 $-1 $566 $583 #
straight-curve $-1 -1 $-1 517 -103.0000000000000568 276.0000000000001705 1.127845612317618649e-14 2.220446049250312686e-15 -10 I I #
vertex $-1 -1 $-1 $521 $584 #
straight-curve $-1 -1 $-1 272.0000000000002274 -103.0000000000000426 150.0000000000001137 -2.819614030794050567e-15 -2.220446049250312686e-15 10 I I #
point $-1 -1 $-1 272.0000000000001705 -103.0000000000000568 276.0000000000000568 #
point $-1 -1 $-1 517 -103.0000000000000568 276.0000000000001705 #
straight-curve $-1 -1 $-1 262.7290000000001555 -103 12.00000000000006217 -10 2.616120348947232867e-31 -1.178195862867513188e-15 I I #
point $-1 -1 $-1 262.7290000000001555 -103 12.00000000000006217 #
point $-1 -1 $-1 17.72900000000014131 -103 12.00000000000003197 #
straight-curve $-1 -1 $-1 272.0000000000002274 -3.330669073875472146e-14 150.0000000000001421 0 -10 -2.220446049250312686e-15 I I #
straight-curve $-1 -1 $-1 517.0000000000002274 -3.330669073875472777e-14 150.0000000000001705 0 -10 -2.220446049250312686e-15 I I #
DXID-attrib $-1 -1 $-1 $-1 $548 @10 ASM ENTITY @2 17 #
plane-surface $-1 -1 $-1 262.7290000000001555 -2.664535259100393841e-15 12.00000000000008349 -1.178195862867513139e-16 -2.220446049250312588e-16 1 -10 2.616120348947232867e-31 -1.178195862867513188e-15 forward_v I I I I #
straight-curve $-1 -1 $-1 257 -103.0000000000000568 276.0000000000001137 8.458842092382144995e-15 2.220446049250312686e-15 -10 I I #
point $-1 -1 $-1 257 -103.0000000000000568 276.0000000000001137 #
straight-curve $-1 -1 $-1 517.0000000000002274 -103.0000000000000426 150.0000000000001705 -10 1.609920214736758603e-31 -7.250436079184695935e-16 I I #
point $-1 -1 $-1 517.0000000000002274 -103.0000000000000426 150.0000000000001705 #
point $-1 -1 $-1 272.0000000000002274 -103.0000000000000426 150.0000000000001137 #
End-of-ACIS-data 