700 0 2 0           
30 Autodesk Translation Framework 20 ASM 229.2.0.65535 NT 24 Mon Jun 19 11:13:33 2023 
1 9.999999999999999547e-07 1.000000000000000036e-10 
body $2 -1 $-1 $3 $-1 $4 #
body $5 -1 $-1 $6 $-1 $7 #
rgb_color-st-attrib $-1 -1 $-1 $-1 $0 0.7921568627450980005 0.8196078431372548767 0.9333333333333333481 #
lump $-1 -1 $-1 $-1 $8 $0 #
transform $-1 -1 1 0 0 0 1 0 0 0 1 0 0 0 1 no_rotate no_reflect no_shear #
rgb_color-st-attrib $-1 -1 $-1 $-1 $1 0.7921568627450980005 0.8196078431372548767 0.9333333333333333481 #
lump $-1 -1 $-1 $-1 $9 $1 #
transform $-1 -1 1 0 0 0 1 0 0 0 1 0 0 0 1 no_rotate no_reflect no_shear #
shell $-1 -1 $-1 $-1 $-1 $10 $-1 $3 #
shell $-1 -1 $-1 $-1 $-1 $11 $-1 $6 #
face $12 -1 $-1 $13 $14 $8 $-1 $15 reversed single #
face $16 -1 $-1 $17 $18 $9 $-1 $19 forward single #
DXID-attrib $-1 -1 $-1 $-1 $10 @10 ASM ENTITY @1 0 #
face $20 -1 $-1 $21 $22 $8 $-1 $23 forward single #
loop $-1 -1 $-1 $24 $25 $10 #
cone-surface $-1 -1 $-1 2.448687061237570998e-14 5.437177510975323274e-30 110.2790613653648109 2.220446049250312588e-16 4.930380657631321594e-32 1 51.01956450386267505 1.132861904370733707e-14 -1.132861904370733707e-14 1 I I 0.1395306826824031787 0.9902177480686672473 51.01956450386267505 forward I I I I #
DXID-attrib $-1 -1 $-1 $-1 $11 @10 ASM ENTITY @1 0 #
face $26 -1 $-1 $27 $28 $9 $-1 $29 forward single #
loop $-1 -1 $-1 $-1 $30 $11 #
sphere-surface $-1 -1 $-1 59.08815196674699166 1.312020535920654586e-14 95.99614275576792011 1 -2.220446049250312588e-16 1 0 1 2.220446049250312588e-16 -2.220446049250312588e-16 forward_v I I I I #
DXID-attrib $-1 -1 $-1 $-1 $13 @10 ASM ENTITY @1 1 #
face $31 -1 $-1 $32 $33 $8 $-1 $34 forward single #
loop $-1 -1 $-1 $35 $36 $13 #
cone-surface $-1 -1 $-1 0 -2.442490654175344073e-14 110 0 2.220446049250312588e-16 -1 0 53.00000000000000711 1.176836406102665933e-14 1 I I 0.9902177480686672473 0.1395306826824029844 53.00000000000000711 forward I I I I #
loop $-1 -1 $-1 $-1 $37 $10 #
coedge $-1 -1 $-1 $25 $25 $38 $39 forward $14 $-1 #
DXID-attrib $-1 -1 $-1 $-1 $17 @10 ASM ENTITY @1 1 #
face $40 -1 $-1 $-1 $41 $9 $-1 $42 forward single #
loop $-1 -1 $-1 $43 $44 $17 #
torus-surface $-1 -1 $-1 1.889556887026453474e-14 4.195659124631608081e-30 100.723076923076917 -2.220446049250312588e-16 1 0 59.27692307692309726 1 -1 -2.220446049250312588e-16 2.220446049250312588e-16 forward_v I I I I #
coedge $-1 -1 $-1 $30 $30 $45 $46 reversed $18 $-1 #
DXID-attrib $-1 -1 $-1 $-1 $21 @10 ASM ENTITY @1 2 #
face $47 -1 $-1 $48 $49 $8 $-1 $50 forward single #
loop $-1 -1 $-1 $51 $52 $21 #
cone-surface $-1 -1 $-1 0 0 0 2.220446049250312588e-16 4.930380657631321594e-32 1 37.5 8.326672684688672475e-15 -8.326672684688672475e-15 1 I I 0.1395306826824031232 0.9902177480686672473 37.5 forward I I I I #
loop $-1 -1 $-1 $-1 $53 $13 #
coedge $-1 -1 $-1 $36 $36 $37 $54 forward $22 $-1 #
coedge $-1 -1 $-1 $37 $37 $36 $54 reversed $24 $-1 #
coedge $-1 -1 $-1 $38 $38 $25 $39 reversed $55 $-1 #
edge $-1 -1 $-1 $56 -3.141592653589793116 $56 3.141592653589793116 $25 $57 forward @7 unknown #
DXID-attrib $-1 -1 $-1 $-1 $27 @10 ASM ENTITY @1 2 #
loop $-1 -1 $-1 $-1 $58 $27 #
sphere-surface $-1 -1 $-1 -59.08815196674696324 -1.312020535920653955e-14 95.99614275576799116 1 -2.220446049250312588e-16 1 0 1 2.220446049250312588e-16 -2.220446049250312588e-16 forward_v I I I I #
loop $-1 -1 $-1 $-1 $45 $17 #
coedge $-1 -1 $-1 $44 $44 $58 $59 forward $28 $-1 #
coedge $-1 -1 $-1 $45 $45 $30 $46 forward $43 $-1 #
edge $-1 -1 $-1 $60 -6.283185307179586232 $60 0 $30 $61 forward @14 tangent_not_g2 #
DXID-attrib $-1 -1 $-1 $-1 $32 @10 ASM ENTITY @1 3 #
face $62 -1 $-1 $-1 $55 $8 $-1 $63 forward single #
loop $-1 -1 $-1 $-1 $64 $32 #
plane-surface $-1 -1 $-1 0 0 0 0 2.220446049250312588e-16 -1 0 1 2.220446049250312588e-16 forward_v I I I I #
loop $-1 -1 $-1 $-1 $65 $21 #
coedge $-1 -1 $-1 $52 $52 $64 $66 reversed $33 $-1 #
coedge $-1 -1 $-1 $53 $53 $65 $67 reversed $35 $-1 #
edge $-1 -1 $-1 $68 -3.141592653589793116 $68 3.141592653589793116 $37 $69 forward @7 unknown #
loop $-1 -1 $-1 $-1 $38 $48 #
vertex $-1 -1 $-1 $39 $70 #
ellipse-curve $-1 -1 $-1 4.440892098500625176e-16 9.860761315262643189e-32 2 -2.220446049250312588e-16 -4.930380657631321594e-32 -1 -35.76206040237943995 -7.940772573351447337e-15 7.940772573351447337e-15 1 I I #
coedge $-1 -1 $-1 $58 $58 $44 $59 reversed $41 $-1 #
edge $-1 -1 $-1 $71 -6.28318530717958712 $71 -8.881784197001071871e-16 $44 $72 forward @14 tangent_not_g2 #
vertex $-1 -1 $-1 $46 $73 #
ellipse-curve $-1 -1 $-1 59.08815196674698456 1.312020535920654428e-14 95.99614275576792011 0.07974324445238234471 1.770655720986942923e-17 0.9968154367605910338 -0.9968154367605910338 -2.21337489838677917e-16 0.07974324445238234471 1 I I #
DXID-attrib $-1 -1 $-1 $-1 $48 @10 ASM ENTITY @1 4 #
plane-surface $-1 -1 $-1 0 -4.440892098500625176e-16 2 0 -2.220446049250312588e-16 1 0 -1 -2.220446049250312588e-16 forward_v I I I I #
coedge $-1 -1 $-1 $64 $64 $52 $66 forward $49 $-1 #
coedge $-1 -1 $-1 $65 $65 $53 $67 forward $51 $-1 #
edge $-1 -1 $-1 $74 -3.141592653589793116 $74 3.141592653589793116 $52 $75 forward @7 unknown #
edge $-1 -1 $-1 $76 1.224646799147353207e-16 $76 6.283185307179586232 $53 $77 forward @7 unknown #
vertex $-1 -1 $-1 $54 $78 #
ellipse-curve $-1 -1 $-1 2.448687061237570998e-14 5.437177510975323274e-30 110.2790613653648109 -2.220446049250312588e-16 -4.930380657631321594e-32 -1 -51.01956450386267505 -1.132861904370733707e-14 1.132861904370733707e-14 1 I I #
point $-1 -1 $-1 35.76206040237943995 7.940772573351447337e-15 1.999999999999992006 #
vertex $-1 -1 $-1 $59 $79 #
ellipse-curve $-1 -1 $-1 -59.08815196674696324 -1.312020535920653955e-14 95.99614275576800537 -0.07974324445239566739 1.436921647051599733e-14 0.9968154367605898125 -0.9968154367605909227 -1.109515909538803001e-15 -0.07974324445239575065 1 I I #
point $-1 -1 $-1 58.09133652998639974 1.28988678693678677e-14 96.07588600022033631 #
vertex $-1 -1 $-1 $66 $80 #
ellipse-curve $-1 -1 $-1 0 0 0 -2.220446049250312588e-16 -4.930380657631321594e-32 -1 -37.5 -8.326672684688672475e-15 8.326672684688672475e-15 1 I I #
vertex $-1 -1 $-1 $67 $81 #
ellipse-curve $-1 -1 $-1 2.442490654175344073e-14 5.423418723394454761e-30 110 -2.220446049250312588e-16 -4.930380657631321594e-32 -1 -53.00000000000000711 -1.176836406102665933e-14 1.176836406102665933e-14 1 I I #
point $-1 -1 $-1 51.01956450386269637 1.769798037962519367e-14 110.2790613653647966 #
point $-1 -1 $-1 -60.08496740350756227 -1.334154284904521613e-14 95.91639951131561759 #
point $-1 -1 $-1 37.5 8.326672684688672475e-15 -8.326672684688672475e-15 #
point $-1 -1 $-1 -52.99999999999997868 -5.277736025545680699e-15 110.0000000000000142 #
End-of-ACIS-data 